<svg width="10px" height="10px" viewBox="0 0 47 47" fill="none" xmlns="http://www.w3.org/2000/svg">
<path d="M23.5003 3.9165C12.7099 3.9165 3.91699 12.7094 3.91699 23.4998C3.91699 34.2903 12.7099 43.0832 23.5003 43.0832C34.2907 43.0832 43.0837 34.2903 43.0837 23.4998C43.0837 12.7094 34.2907 3.9165 23.5003 3.9165ZM32.8612 18.9957L21.7574 30.0994C21.4832 30.3736 21.1112 30.5303 20.7195 30.5303C20.3278 30.5303 19.9557 30.3736 19.6816 30.0994L14.1395 24.5573C13.5716 23.9894 13.5716 23.0494 14.1395 22.4815C14.7074 21.9136 15.6474 21.9136 16.2153 22.4815L20.7195 26.9857L30.7853 16.9198C31.3532 16.3519 32.2932 16.3519 32.8612 16.9198C33.4291 17.4878 33.4291 18.4082 32.8612 18.9957Z" fill="#FEDAC2"/>
</svg>
